<svg width="116" height="76" viewBox="0 0 116 76" fill="none" xmlns="http://www.w3.org/2000/svg">
<rect x="28.8491" y="1.98145" width="58.3025" height="29.5585" stroke="#2C2C2C" stroke-width="2"/>
<path d="M68.0186 5.44525L80.277 31.5436H68.0186V5.44525Z" stroke="#2C2C2C" stroke-width="2"/>
<path d="M60.7266 0.981445V32.5436M87.4049 32.5436V0.981445" stroke="#2C2C2C" stroke-width="2"/>
<path d="M79.9565 0.985352L79.9565 32.5438" stroke="#2C2C2C" stroke-width="2"/>
<path d="M36.3169 31.4841V2.04138C43.9004 2.71758 49.837 9.05485 49.837 16.7627C49.837 24.4706 43.9004 30.8079 36.3169 31.4841Z" stroke="#2C2C2C" stroke-width="2"/>
<path d="M29.816 52C32.784 52 34.828 49.914 34.828 46.904C34.828 43.852 32.742 41.766 29.718 41.766H26.134V52H29.816ZM29.55 43.418C31.664 43.418 32.938 44.734 32.938 46.904C32.938 49.032 31.692 50.348 29.648 50.348H27.926V43.418H29.55ZM42.6134 52L43.4394 49.634H47.2614L48.0874 52H49.9774L46.2814 41.766H44.4474L40.7514 52H42.6134ZM45.1334 44.818C45.2314 44.538 45.3154 44.23 45.3574 44.034C45.3854 44.244 45.4834 44.552 45.5674 44.818L46.7434 48.122H43.9714L45.1334 44.818ZM58.3805 52H60.2285L64.0365 41.766H62.1745L59.9625 47.66C59.7665 48.178 59.5565 48.808 59.3045 49.704C59.0805 48.878 58.8845 48.276 58.6605 47.66L56.4205 41.766H54.5165L58.3805 52ZM72.8452 41.766H71.0532V52H72.8452V41.766ZM84.5358 52C87.5038 52 89.5478 49.914 89.5478 46.904C89.5478 43.852 87.4618 41.766 84.4378 41.766H80.8538V52H84.5358ZM84.2698 43.418C86.3838 43.418 87.6578 44.734 87.6578 46.904C87.6578 49.032 86.4118 50.348 84.3678 50.348H82.6458V43.418H84.2698Z" fill="#2C2C2C"/>
<path d="M3.398 72V64.748L8.214 72H9.978V61.766H8.214V69.018L3.412 61.766H1.634V72H3.398ZM24.3394 72V70.348H19.7754V67.632H23.8634V66.05H19.7754V63.418H24.3394V61.766H17.9834V72H24.3394ZM33.8142 72V68.178H36.0122L37.7482 72H39.7082L37.7622 67.8C38.9662 67.31 39.6102 66.33 39.6102 64.958C39.6102 62.942 38.2522 61.766 35.9282 61.766H32.0222V72H33.8142ZM33.8142 63.362H35.9282C37.0622 63.362 37.7342 63.936 37.7342 64.958C37.7342 65.994 37.0622 66.596 35.9282 66.596H33.8142V63.362ZM50.7951 61.206C51.8171 61.206 52.5871 60.436 52.5871 59.428C52.5871 58.42 51.8171 57.636 50.7951 57.636C49.7731 57.636 48.9891 58.406 48.9891 59.428C48.9891 60.464 49.7451 61.206 50.7951 61.206ZM50.7951 60.282C50.2911 60.282 49.9691 59.932 49.9691 59.4C49.9691 58.896 50.3051 58.56 50.7951 58.56C51.2711 58.56 51.6071 58.91 51.6071 59.4C51.6071 59.932 51.2851 60.282 50.7951 60.282ZM48.0231 72L48.8491 69.634H52.6711L53.4971 72H55.3871L51.6911 61.766H49.8571L46.1611 72H48.0231ZM50.5431 64.818C50.6411 64.538 50.7251 64.23 50.7671 64.034C50.7951 64.244 50.8931 64.552 50.9771 64.818L52.1531 68.122H49.3811L50.5431 64.818ZM68.0104 67.814V66.204H64.2024V63.418H68.7384V61.766H62.4104V72H64.2024V67.814H68.0104ZM85.4318 66.876C85.4318 63.754 83.3878 61.584 80.4618 61.584C77.5358 61.584 75.5058 63.768 75.5058 66.876C75.5058 69.998 77.5218 72.168 80.4478 72.168C83.3878 72.168 85.4318 69.984 85.4318 66.876ZM83.5418 66.876C83.5418 69.032 82.3378 70.446 80.4618 70.446C78.5858 70.446 77.3818 69.06 77.3818 66.876C77.3818 64.692 78.5858 63.306 80.4618 63.306C82.3378 63.306 83.5418 64.692 83.5418 66.876ZM94.6316 72V68.178H96.8296L98.5656 72H100.526L98.5796 67.8C99.7836 67.31 100.428 66.33 100.428 64.958C100.428 62.942 99.0696 61.766 96.7456 61.766H92.8396V72H94.6316ZM94.6316 63.362H96.7456C97.8796 63.362 98.5516 63.936 98.5516 64.958C98.5516 65.994 97.8796 66.596 96.7456 66.596H94.6316V63.362ZM107.371 64.622C107.371 66.19 108.281 67.184 110.017 67.562L111.641 67.926C112.481 68.108 112.831 68.514 112.831 69.2C112.831 70.054 112.075 70.572 110.885 70.572C109.737 70.572 109.037 70.054 109.023 69.186H107.231C107.273 71.02 108.701 72.182 110.885 72.182C113.139 72.182 114.623 70.95 114.623 69.046C114.623 67.52 113.769 66.624 112.019 66.246L110.409 65.896C109.555 65.7 109.163 65.294 109.163 64.566C109.163 63.712 109.877 63.18 110.983 63.18C111.991 63.18 112.621 63.698 112.663 64.58H114.455C114.399 62.732 113.083 61.584 111.011 61.584C108.855 61.584 107.371 62.83 107.371 64.622Z" fill="#2C2C2C"/>
</svg>
